<svg width="24" height="24" viewBox="0 0 24 24" fill="none" xmlns="http://www.w3.org/2000/svg">
<path d="M2 10.8594C2 10.2462 2 9.93959 2.07903 9.65724C2.14904 9.40713 2.26409 9.17189 2.41854 8.96307C2.59289 8.72734 2.83491 8.53911 3.31894 8.16264L10.5599 2.53077C10.935 2.23904 11.1225 2.09318 11.3296 2.03711C11.5123 1.98763 11.7049 1.98763 11.8877 2.03711C12.0947 2.09318 12.2823 2.23904 12.6574 2.53077L19.8983 8.16264C20.3824 8.53911 20.6244 8.72734 20.7987 8.96307C20.9532 9.17189 21.0682 9.40713 21.1382 9.65724C21.2173 9.93959 21.2173 10.2462 21.2173 10.8594V18.5836C21.2173 19.7794 21.2173 20.3774 20.9846 20.8341C20.7798 21.2359 20.4532 21.5626 20.0514 21.7673C19.5947 22 18.9967 22 17.8009 22H5.41641C4.22055 22 3.62262 22 3.16587 21.7673C2.76409 21.5626 2.43744 21.2359 2.23273 20.8341C2 20.3774 2 19.7794 2 18.5836V10.8594Z" fill="black"/>
<line x1="8.75" y1="17.25" x2="14.25" y2="17.25" stroke="white" stroke-width="1.5" stroke-linecap="round"/>
</svg>
